HIERARCHY
ROOT Hips
{
	OFFSET 0.053599 88.859886 3.107447
	CHANNELS 6 Xposition Yposition Zposition Zrotation Yrotation Xrotation 
	JOINT Spine
	{
		OFFSET -0.000000 8.814246 -2.080107
		CHANNELS 3 Zrotation Yrotation Xrotation
		JOINT Spine1
		{
			OFFSET 0.000000 8.844141 0.000000
			CHANNELS 3 Zrotation Yrotation Xrotation
			JOINT Spine2
			{
				OFFSET -0.000000 11.682268 0.000000
				CHANNELS 3 Zrotation Yrotation Xrotation
				JOINT Spine3
				{
					OFFSET 0.000000 11.746700 0.000000
					CHANNELS 3 Zrotation Yrotation Xrotation
					JOINT Neck
					{
						OFFSET -0.000000 17.658264 -0.000000
						CHANNELS 3 Zrotation Yrotation Xrotation
						JOINT Neck1
						{
							OFFSET -0.000000 5.101515 -0.000000
							CHANNELS 3 Zrotation Yrotation Xrotation
							JOINT Head
							{
								OFFSET 0.000000 5.101515 0.000000
								CHANNELS 3 Zrotation Yrotation Xrotation
								JOINT HeadEnd
								{
									OFFSET 0.000000 11.655085 0.000000
									CHANNELS 3 Zrotation Yrotation Xrotation
									End Site
									{
										OFFSET 0.000000 0.000000 0.000000
									}
								}
							}
						}
					}
					JOINT RightShoulder
					{
						OFFSET -2.625389 11.175210 0.000000
						CHANNELS 3 Zrotation Yrotation Xrotation
						JOINT RightArm
						{
							OFFSET -0.000000 10.434715 -0.000000
							CHANNELS 3 Zrotation Yrotation Xrotation
							JOINT RightForeArm
							{
								OFFSET -0.000000 29.628420 0.000000
								CHANNELS 3 Zrotation Yrotation Xrotation
								JOINT RightHand
								{
									OFFSET -0.000000 22.857611 0.000000
									CHANNELS 3 Zrotation Yrotation Xrotation
									JOINT RightHandThumb1
									{
										OFFSET -2.867323 3.959563 2.944291
										CHANNELS 3 Zrotation Yrotation Xrotation
										JOINT RightHandThumb2
										{
											OFFSET 0.000000 3.350399 0.000000
											CHANNELS 3 Zrotation Yrotation Xrotation
											JOINT RightHandThumb3
											{
												OFFSET 0.000000 3.756509 -0.000000
												CHANNELS 3 Zrotation Yrotation Xrotation
												JOINT RightHandThumb4
												{
													OFFSET 0.000000 3.147345 0.000000
													CHANNELS 3 Zrotation Yrotation Xrotation
													End Site
													{
														OFFSET 0.000000 0.000000 0.000000
													}
												}
											}
										}
									}
									JOINT RightHandIndex1
									{
										OFFSET -0.086752 10.030893 2.345280
										CHANNELS 3 Zrotation Yrotation Xrotation
										JOINT RightHandIndex2
										{
											OFFSET -0.000000 4.061090 0.000000
											CHANNELS 3 Zrotation Yrotation Xrotation
											JOINT RightHandIndex3
											{
												OFFSET -0.000000 3.248873 0.000000
												CHANNELS 3 Zrotation Yrotation Xrotation
												JOINT RightHandIndex4
												{
													OFFSET 0.000000 2.639709 -0.000000
													CHANNELS 3 Zrotation Yrotation Xrotation
													End Site
													{
														OFFSET 0.000000 0.000000 0.000000
													}
												}
											}
										}
									}
									JOINT RightHandMiddle1
									{
										OFFSET 0.104102 9.502952 0.006768
										CHANNELS 3 Zrotation Yrotation Xrotation
										JOINT RightHandMiddle2
										{
											OFFSET 0.000000 4.568727 0.000000
											CHANNELS 3 Zrotation Yrotation Xrotation
											JOINT RightHandMiddle3
											{
												OFFSET 0.000000 3.654981 -0.000000
												CHANNELS 3 Zrotation Yrotation Xrotation
												JOINT RightHandMiddle4
												{
													OFFSET -0.000000 2.741236 -0.000000
													CHANNELS 3 Zrotation Yrotation Xrotation
													End Site
													{
														OFFSET 0.000000 0.000000 0.000000
													}
												}
											}
										}
									}
									JOINT RightHandRing1
									{
										OFFSET 0.086752 8.921708 -2.267442
										CHANNELS 3 Zrotation Yrotation Xrotation
										JOINT RightHandRing2
										{
											OFFSET -0.000000 4.061090 0.000000
											CHANNELS 3 Zrotation Yrotation Xrotation
											JOINT RightHandRing3
											{
												OFFSET 0.000000 3.654981 -0.000000
												CHANNELS 3 Zrotation Yrotation Xrotation
												JOINT RightHandRing4
												{
													OFFSET 0.000000 2.741236 -0.000000
													CHANNELS 3 Zrotation Yrotation Xrotation
													End Site
													{
														OFFSET 0.000000 0.000000 0.000000
													}
												}
											}
										}
									}
									JOINT RightHandPinky1
									{
										OFFSET -0.173504 7.976997 -4.467199
										CHANNELS 3 Zrotation Yrotation Xrotation
										JOINT RightHandPinky2
										{
											OFFSET 0.000000 3.350399 -0.000000
											CHANNELS 3 Zrotation Yrotation Xrotation
											JOINT RightHandPinky3
											{
												OFFSET -0.000000 2.842763 0.000000
												CHANNELS 3 Zrotation Yrotation Xrotation
												JOINT RightHandPinky4
												{
													OFFSET -0.000000 2.639709 0.000000
													CHANNELS 3 Zrotation Yrotation Xrotation
													End Site
													{
														OFFSET 0.000000 0.000000 0.000000
													}
												}
											}
										}
									}
									JOINT RightForeArmEnd
									{
										OFFSET 0.000000 0.000000 0.000000
										CHANNELS 3 Zrotation Yrotation Xrotation
										End Site
										{
											OFFSET 0.000000 0.000000 0.000000
										}
									}
								}
								JOINT RightArmEnd
								{
									OFFSET 0.000000 0.000000 0.000000
									CHANNELS 3 Zrotation Yrotation Xrotation
									End Site
									{
										OFFSET 0.000000 0.000000 0.000000
									}
								}
							}
						}
					}
					JOINT LeftShoulder
					{
						OFFSET 2.625389 11.175210 0.000000
						CHANNELS 3 Zrotation Yrotation Xrotation
						JOINT LeftArm
						{
							OFFSET 0.000000 10.813635 -0.000000
							CHANNELS 3 Zrotation Yrotation Xrotation
							JOINT LeftForeArm
							{
								OFFSET 0.000000 28.724781 0.000000
								CHANNELS 3 Zrotation Yrotation Xrotation
								JOINT LeftHand
								{
									OFFSET 0.644384 25.716167 -0.328871
									CHANNELS 3 Zrotation Yrotation Xrotation
									JOINT LeftHandThumb1
									{
										OFFSET 2.867323 3.959563 2.944291
										CHANNELS 3 Zrotation Yrotation Xrotation
										JOINT LeftHandThumb2
										{
											OFFSET 0.000000 3.350399 0.000000
											CHANNELS 3 Zrotation Yrotation Xrotation
											JOINT LeftHandThumb3
											{
												OFFSET -0.000000 3.756509 0.000000
												CHANNELS 3 Zrotation Yrotation Xrotation
												JOINT LeftHandThumb4
												{
													OFFSET -0.000000 3.100000 0.000000
													CHANNELS 3 Zrotation Yrotation Xrotation
													End Site
													{
														OFFSET 0.000000 0.000000 0.000000
													}
												}
											}
										}
									}
									JOINT LeftHandIndex1
									{
										OFFSET 0.086752 10.030893 2.345280
										CHANNELS 3 Zrotation Yrotation Xrotation
										JOINT LeftHandIndex2
										{
											OFFSET -0.000000 4.061090 -0.000000
											CHANNELS 3 Zrotation Yrotation Xrotation
											JOINT LeftHandIndex3
											{
												OFFSET 0.000000 3.248873 -0.000000
												CHANNELS 3 Zrotation Yrotation Xrotation
												JOINT LeftHandIndex4
												{
													OFFSET 0.000000 2.639709 -0.000000
													CHANNELS 3 Zrotation Yrotation Xrotation
													End Site
													{
														OFFSET 0.000000 0.000000 0.000000
													}
												}
											}
										}
									}
									JOINT LeftHandMiddle1
									{
										OFFSET -0.104102 9.502952 0.006768
										CHANNELS 3 Zrotation Yrotation Xrotation
										JOINT LeftHandMiddle2
										{
											OFFSET -0.000000 4.568727 -0.000000
											CHANNELS 3 Zrotation Yrotation Xrotation
											JOINT LeftHandMiddle3
											{
												OFFSET 0.000000 3.654981 0.000000
												CHANNELS 3 Zrotation Yrotation Xrotation
												JOINT LeftHandMiddle4
												{
													OFFSET 0.000000 2.741236 -0.000000
													CHANNELS 3 Zrotation Yrotation Xrotation
													End Site
													{
														OFFSET 0.000000 0.000000 0.000000
													}
												}
											}
										}
									}
									JOINT LeftHandRing1
									{
										OFFSET -0.086752 8.921708 -2.267442
										CHANNELS 3 Zrotation Yrotation Xrotation
										JOINT LeftHandRing2
										{
											OFFSET 0.000000 4.061090 0.000000
											CHANNELS 3 Zrotation Yrotation Xrotation
											JOINT LeftHandRing3
											{
												OFFSET 0.000000 3.654981 0.000000
												CHANNELS 3 Zrotation Yrotation Xrotation
												JOINT LeftHandRing4
												{
													OFFSET 0.000000 2.741236 0.000000
													CHANNELS 3 Zrotation Yrotation Xrotation
													End Site
													{
														OFFSET 0.000000 0.000000 0.000000
													}
												}
											}
										}
									}
									JOINT LeftHandPinky1
									{
										OFFSET 0.173504 7.976997 -4.467199
										CHANNELS 3 Zrotation Yrotation Xrotation
										JOINT LeftHandPinky2
										{
											OFFSET -0.000000 3.350399 -0.000000
											CHANNELS 3 Zrotation Yrotation Xrotation
											JOINT LeftHandPinky3
											{
												OFFSET 0.000000 2.842763 0.000000
												CHANNELS 3 Zrotation Yrotation Xrotation
												JOINT LeftHandPinky4
												{
													OFFSET -0.000000 2.639709 -0.000000
													CHANNELS 3 Zrotation Yrotation Xrotation
													End Site
													{
														OFFSET 0.000000 0.000000 0.000000
													}
												}
											}
										}
									}
									JOINT LeftForeArmEnd
									{
										OFFSET 0.000000 0.000000 0.000000
										CHANNELS 3 Zrotation Yrotation Xrotation
										End Site
										{
											OFFSET 0.000000 0.000000 0.000000
										}
									}
								}
								JOINT LeftArmEnd
								{
									OFFSET 0.000000 0.000000 0.000000
									CHANNELS 3 Zrotation Yrotation Xrotation
									End Site
									{
										OFFSET 0.000000 0.000000 0.000000
									}
								}
							}
						}
					}
				}
			}
		}
	}
	JOINT RightUpLeg
	{
		OFFSET -11.289943 0.000000 0.000000
		CHANNELS 3 Zrotation Yrotation Xrotation
		JOINT RightLeg
		{
			OFFSET 0.000000 -38.200325 0.000000
			CHANNELS 3 Zrotation Yrotation Xrotation
			JOINT RightFoot
			{
				OFFSET -0.000000 -39.900856 -0.000000
				CHANNELS 3 Zrotation Yrotation Xrotation
				JOINT RightToeBase
				{
					OFFSET 0.000000 0.000000 15.261641
					CHANNELS 3 Zrotation Yrotation Xrotation
					JOINT RightToeBaseEnd
					{
						OFFSET 0.000000 0.000000 7.370709
						CHANNELS 3 Zrotation Yrotation Xrotation
						End Site
						{
							OFFSET 0.000000 0.000000 0.000000
						}
					}
				}
				JOINT RightLegEnd
				{
					OFFSET 0.000000 0.000000 0.000000
					CHANNELS 3 Zrotation Yrotation Xrotation
					End Site
					{
						OFFSET 0.000000 0.000000 0.000000
					}
				}
			}
			JOINT RightUpLegEnd
			{
				OFFSET 0.000000 0.000000 0.000000
				CHANNELS 3 Zrotation Yrotation Xrotation
				End Site
				{
					OFFSET 0.000000 0.000000 0.000000
				}
			}
		}
	}
	JOINT LeftUpLeg
	{
		OFFSET 11.315661 -0.000000 0.000000
		CHANNELS 3 Zrotation Yrotation Xrotation
		JOINT LeftLeg
		{
			OFFSET -0.000000 -38.200325 -0.000000
			CHANNELS 3 Zrotation Yrotation Xrotation
			JOINT LeftFoot
			{
				OFFSET 0.000000 -39.900856 -0.000000
				CHANNELS 3 Zrotation Yrotation Xrotation
				JOINT LeftToeBase
				{
					OFFSET -0.000000 -0.000000 15.261641
					CHANNELS 3 Zrotation Yrotation Xrotation
					JOINT LeftToeBaseEnd
					{
						OFFSET 0.000000 -0.000000 7.539996
						CHANNELS 3 Zrotation Yrotation Xrotation
						End Site
						{
							OFFSET 0.000000 0.000000 0.000000
						}
					}
				}
				JOINT LeftLegEnd
				{
					OFFSET 0.000000 0.000000 0.000000
					CHANNELS 3 Zrotation Yrotation Xrotation
					End Site
					{
						OFFSET 0.000000 0.000000 0.000000
					}
				}
			}
			JOINT LeftUpLegEnd
			{
				OFFSET 0.000000 0.000000 0.000000
				CHANNELS 3 Zrotation Yrotation Xrotation
				End Site
				{
					OFFSET 0.000000 0.000000 0.000000
				}
			}
		}
	}
}
MOTION
Frames: 5
Frame Time: 0.016667
0.318879 88.675957 3.266422 -0.377095 -0.801971 -10.424273 1.186039 0.069406 7.037091 -0.729292 0.284537 2.986484 0.277640 -0.374194 4.394067 -1.093291 0.264114 4.801454 1.822035 0.266392 6.069745 0.533432 0.990487 -2.613586 -0.502004 -1.001078 -19.967293 0.000000 0.000000 0.000000 92.632317 -0.177047 10.290539 65.374107 -28.670233 6.127048 0.076787 16.726866 23.153582 6.403143 11.023783 -6.414960 19.655865 30.179462 62.263058 -8.227549 -11.802077 -19.974936 -6.133931 -7.762756 -13.750492 0.000000 0.000000 0.000000 11.335739 -10.978515 1.327395 9.910152 0.407071 1.201651 9.655825 -0.024111 1.160558 0.000000 0.000000 0.000000 10.550957 -5.336838 -0.097015 8.539059 0.466780 0.439870 9.027118 -0.026460 0.385995 0.000000 0.000000 0.000000 11.685289 2.523956 -0.433054 9.303972 -0.932599 -0.678829 9.143106 0.027531 -0.475602 0.000000 0.000000 0.000000 10.739622 11.125557 -1.681051 8.900421 -1.783450 -2.046550 8.838605 0.140416 -1.653906 0.000000 0.000000 0.000000 0.000000 0.000000 0.000000 0.000000 0.000000 0.000000 -90.339455 0.258930 5.199834 -70.988571 16.068733 -5.162501 -0.600808 -11.430753 46.433552 0.544540 -10.739467 -14.668556 -19.372440 -30.260069 62.451969 8.062031 11.161984 -19.069294 5.882729 7.480265 -13.440789 0.000000 0.000000 0.000000 -13.353197 -6.546268 4.127252 -9.067914 0.422133 -0.954485 -8.854788 -0.037589 -0.934631 0.000000 0.000000 0.000000 -12.960484 -1.333394 1.642601 -8.669231 0.452229 -0.429645 -8.981503 -0.033277 -0.339271 0.000000 0.000000 0.000000 -16.200989 7.025939 -0.378697 -10.861005 -0.943587 0.731804 -10.794622 0.036315 0.581249 0.000000 0.000000 0.000000 -18.356441 16.093319 -3.548316 -12.345675 -1.744805 2.454966 -11.825095 0.258991 2.144753 0.000000 0.000000 0.000000 0.000000 0.000000 0.000000 0.000000 0.000000 0.000000 -0.501650 -9.781015 14.649708 -0.081309 -0.704024 4.837284 -2.944894 -7.288492 17.630726 -0.801730 0.862356 -18.609415 0.000000 0.000000 0.000000 0.000000 0.000000 0.000000 0.000000 0.000000 0.000000 -1.141141 -6.021038 8.670672 0.062688 0.264954 11.085823 3.746419 -0.424640 16.442436 0.260368 -0.346089 -20.791161 0.000000 0.000000 0.000000 0.000000 0.000000 0.000000 0.000000 0.000000 0.000000 
0.317946 88.672165 3.279340 -0.376149 -0.811628 -10.454241 1.190902 0.068611 7.055410 -0.725433 0.283673 2.989782 0.274317 -0.356065 4.416899 -1.102548 0.267632 4.816129 1.848998 0.242462 6.101531 0.533791 0.971132 -2.597283 -0.492828 -0.998644 -19.979898 0.000000 0.000000 0.000000 92.639404 -0.180393 10.302732 65.352562 -28.741230 6.144283 0.078665 16.650709 23.015900 6.431842 10.983221 -6.471842 19.651363 30.179958 62.266796 -8.225978 -11.790606 -19.961159 -6.132172 -7.756022 -13.740434 0.000000 0.000000 0.000000 11.278663 -10.969039 1.329865 9.878791 0.408593 1.197911 9.622760 -0.022392 1.156643 0.000000 0.000000 0.000000 10.503463 -5.328444 -0.108534 8.512680 0.467281 0.437276 8.996635 -0.025967 0.384257 0.000000 0.000000 0.000000 11.676381 2.528234 -0.443767 9.298069 -0.933167 -0.674172 9.134513 0.026758 -0.472144 0.000000 0.000000 0.000000 10.760442 11.127877 -1.689735 8.918746 -1.786558 -2.032259 8.855752 0.136661 -1.640437 0.000000 0.000000 0.000000 0.000000 0.000000 0.000000 0.000000 0.000000 0.000000 -90.348091 0.260545 5.195177 -70.994492 16.127670 -5.141476 -0.596291 -11.299748 46.333672 0.498007 -10.577374 -14.779577 -19.351929 -30.266268 62.472958 8.041639 11.119925 -19.004686 5.865063 7.451341 -13.397302 0.000000 0.000000 0.000000 -13.152390 -6.585042 4.183753 -8.955770 0.425071 -0.948095 -8.741032 -0.034619 -0.928918 0.000000 0.000000 0.000000 -12.767926 -1.370161 1.677680 -8.548407 0.453582 -0.426320 -8.866306 -0.032089 -0.336550 0.000000 0.000000 0.000000 -15.999001 6.994575 -0.370267 -10.743077 -0.946142 0.725806 -10.672220 0.034488 0.576944 0.000000 0.000000 0.000000 -18.153206 16.075069 -3.565804 -12.239489 -1.751361 2.435295 -11.713501 0.253358 2.129000 0.000000 0.000000 0.000000 0.000000 0.000000 0.000000 0.000000 0.000000 0.000000 -0.501984 -9.790623 14.682254 -0.081588 -0.705489 4.842273 -2.948655 -7.282762 17.609093 -0.804022 0.866012 -18.603842 0.000000 0.000000 0.000000 0.000000 0.000000 0.000000 0.000000 0.000000 0.000000 -1.128167 -6.025935 8.683835 0.062501 0.263618 11.138179 3.740934 -0.430143 16.418184 0.256962 -0.344123 -20.794252 0.000000 0.000000 0.000000 0.000000 0.000000 0.000000 0.000000 0.000000 0.000000 
0.316874 88.668442 3.291495 -0.374645 -0.822792 -10.484214 1.193846 0.067799 7.074602 -0.721495 0.283012 2.992940 0.271234 -0.339650 4.439766 -1.112349 0.270346 4.830431 1.881039 0.217262 6.134768 0.535183 0.952229 -2.580055 -0.483606 -0.995720 -19.993748 0.000000 0.000000 0.000000 92.649765 -0.183079 10.312018 65.326538 -28.807692 6.163236 0.081567 16.577263 22.889307 6.453322 10.953856 -6.522844 19.645964 30.180952 62.271835 -8.223024 -11.777093 -19.943691 -6.129499 -7.747972 -13.728209 0.000000 0.000000 0.000000 11.207810 -10.957634 1.333576 9.838566 0.410587 1.193262 9.581316 -0.020231 1.152019 0.000000 0.000000 0.000000 10.442770 -5.317716 -0.119270 8.478792 0.467971 0.434303 8.957897 -0.025322 0.382234 0.000000 0.000000 0.000000 11.656680 2.534688 -0.454666 9.286216 -0.934047 -0.669117 9.119614 0.025797 -0.468368 0.000000 0.000000 0.000000 10.776470 11.131606 -1.699701 8.933840 -1.790371 -2.016896 8.868773 0.132382 -1.626091 0.000000 0.000000 0.000000 0.000000 0.000000 0.000000 0.000000 0.000000 0.000000 -90.359665 0.262314 5.189969 -70.998764 16.197233 -5.123480 -0.590122 -11.167748 46.259403 0.465685 -10.429732 -14.885159 -19.331976 -30.272360 62.493729 8.021594 11.078979 -18.941093 5.847606 7.422990 -13.354719 0.000000 0.000000 0.000000 -12.946289 -6.625205 4.235743 -8.841565 0.428284 -0.941478 -8.625601 -0.031411 -0.922837 0.000000 0.000000 0.000000 -12.572500 -1.407558 1.709651 -8.426276 0.455055 -0.422888 -8.749865 -0.030847 -0.333765 0.000000 0.000000 0.000000 -15.795430 6.963116 -0.365322 -10.623626 -0.948849 0.719494 -10.548257 0.032571 0.572482 0.000000 0.000000 0.000000 -17.951447 16.056988 -3.585257 -12.133232 -1.758232 2.415262 -11.602472 0.247444 2.112906 0.000000 0.000000 0.000000 0.000000 0.000000 0.000000 0.000000 0.000000 0.000000 -0.502286 -9.797658 14.713215 -0.081900 -0.707251 4.848369 -2.952040 -7.276999 17.586067 -0.806471 0.870202 -18.598097 0.000000 0.000000 0.000000 0.000000 0.000000 0.000000 0.000000 0.000000 0.000000 -1.116378 -6.029474 8.696797 0.062306 0.261938 11.192134 3.735862 -0.436111 16.392277 0.253406 -0.341709 -20.796551 0.000000 0.000000 0.000000 0.000000 0.000000 0.000000 0.000000 0.000000 0.000000 
0.315899 88.664886 3.302998 -0.372474 -0.835706 -10.513826 1.194963 0.067053 7.093878 -0.717936 0.282626 2.995305 0.268338 -0.325190 4.462901 -1.122269 0.272110 4.844385 1.915891 0.191821 6.167064 0.537405 0.934069 -2.562612 -0.474693 -0.992377 -20.008202 0.000000 0.000000 0.000000 92.662125 -0.185408 10.318655 65.299156 -28.867830 6.182486 0.084599 16.507133 22.777122 6.466863 10.938325 -6.562821 19.640368 30.182058 62.277004 -8.219843 -11.763229 -19.925535 -6.126665 -7.739679 -13.715692 0.000000 0.000000 0.000000 11.132853 -10.945462 1.339387 9.793974 0.412858 1.187802 9.536121 -0.017801 1.146775 0.000000 0.000000 0.000000 10.377745 -5.306060 -0.127996 8.441463 0.468776 0.431059 8.915387 -0.024583 0.379970 0.000000 0.000000 0.000000 11.632490 2.542005 -0.464297 9.271476 -0.935126 -0.663767 9.101920 0.024721 -0.464348 0.000000 0.000000 0.000000 10.791064 11.135547 -1.709673 8.947196 -1.794495 -2.000801 8.879499 0.127899 -1.611315 0.000000 0.000000 0.000000 0.000000 0.000000 0.000000 0.000000 0.000000 0.000000 -90.372520 0.264236 5.184733 -71.004074 16.276148 -5.111469 -0.582546 -11.037512 46.210358 0.441850 -10.299365 -14.981169 -19.314318 -30.277773 62.512394 8.003740 11.042506 -18.884081 5.831925 7.397589 -13.316692 0.000000 0.000000 0.000000 -12.750730 -6.663563 4.281203 -8.731471 0.431596 -0.934508 -8.514347 -0.028118 -0.916324 0.000000 0.000000 0.000000 -12.388122 -1.442989 1.737045 -8.309567 0.456575 -0.419347 -8.638558 -0.029600 -0.330889 0.000000 0.000000 0.000000 -15.605262 6.933713 -0.363716 -10.510599 -0.951565 0.713068 -10.430772 0.030663 0.567951 0.000000 0.000000 0.000000 -17.765715 16.040503 -3.606181 -12.034741 -1.765007 2.395590 -11.499699 0.241677 2.097095 0.000000 0.000000 0.000000 0.000000 0.000000 0.000000 0.000000 0.000000 0.000000 -0.502903 -9.802118 14.742514 -0.082252 -0.709263 4.855218 -2.954747 -7.270473 17.562113 -0.809047 0.874867 -18.592186 0.000000 0.000000 0.000000 0.000000 0.000000 0.000000 0.000000 0.000000 0.000000 -1.106046 -6.030540 8.709498 0.062087 0.259998 11.246689 3.731262 -0.442231 16.365459 0.249800 -0.339033 -20.798077 0.000000 0.000000 0.000000 0.000000 0.000000 0.000000 0.000000 0.000000 0.000000 
0.315116 88.661568 3.314074 -0.369633 -0.850461 -10.543041 1.194402 0.066426 7.112803 -0.715440 0.282675 2.996291 0.265936 -0.312805 4.486822 -1.132346 0.272926 4.857419 1.950895 0.166706 6.198602 0.539962 0.916151 -2.544853 -0.466120 -0.988887 -20.023294 0.000000 0.000000 0.000000 92.676605 -0.187524 10.323274 65.271156 -28.922550 6.203324 0.087504 16.440929 22.676889 6.472459 10.942092 -6.587152 19.635159 30.183083 62.281540 -8.217147 -11.750393 -19.908731 -6.124202 -7.732056 -13.704268 0.000000 0.000000 0.000000 11.060872 -10.933611 1.348662 9.748808 0.415325 1.181661 9.490986 -0.015182 1.141003 0.000000 0.000000 0.000000 10.315283 -5.294674 -0.133154 8.404490 0.469657 0.427609 8.872927 -0.023778 0.377515 0.000000 0.000000 0.000000 11.608820 2.549117 -0.470930 9.257149 -0.936360 -0.658172 9.084863 0.023558 -0.460134 0.000000 0.000000 0.000000 10.806557 11.139041 -1.717969 8.961010 -1.798780 -1.984131 8.890347 0.123336 -1.596312 0.000000 0.000000 0.000000 0.000000 0.000000 0.000000 0.000000 0.000000 0.000000 -90.386421 0.266267 5.179906 -71.007629 16.365189 -5.104815 -0.574012 -10.912531 46.184963 0.418768 -10.192435 -15.064070 -19.300901 -30.281956 62.527004 7.990103 11.014335 -18.839638 5.819648 7.377656 -13.287356 0.000000 0.000000 0.000000 -12.582832 -6.696874 4.317215 -8.634331 0.434936 -0.927002 -8.416119 -0.024806 -0.909231 0.000000 0.000000 0.000000 -12.231153 -1.473524 1.758110 -8.207247 0.458102 -0.415645 -8.541368 -0.028372 -0.327885 0.000000 0.000000 0.000000 -15.444800 6.909074 -0.364968 -10.413855 -0.954213 0.706623 -10.329458 0.028821 0.563395 0.000000 0.000000 0.000000 -17.611338 16.027899 -3.626729 -11.952889 -1.771513 2.376475 -11.414092 0.236207 2.081711 0.000000 0.000000 0.000000 0.000000 0.000000 0.000000 0.000000 0.000000 0.000000 -0.504427 -9.804125 14.771263 -0.082624 -0.711446 4.861424 -2.956593 -7.262116 17.537371 -0.811684 0.879798 -18.585838 0.000000 0.000000 0.000000 0.000000 0.000000 0.000000 0.000000 0.000000 0.000000 -1.097537 -6.027884 8.722844 0.061824 0.257820 11.299872 3.727430 -0.447218 16.338816 0.246270 -0.336158 -20.798882 0.000000 0.000000 0.000000 0.000000 0.000000 0.000000 0.000000 0.000000 0.000000 
